<mxfile host="app.diagrams.net" modified="2024-02-06T15:34:20.735Z" agent="Mozilla/5.0 (Windows NT 10.0; Win64; x64) AppleWebKit/537.36 (KHTML, like Gecko) Chrome/121.0.0.0 Safari/537.36" etag="WO0gSLX3J7ZwUaHLonva" version="23.1.1" type="github">
  <diagram name="Page-1" id="a74B4hUyCrlMNp4JHoA-">
    <mxGraphModel dx="880" dy="434" grid="1" gridSize="10" guides="1" tooltips="1" connect="1" arrows="1" fold="1" page="1" pageScale="1" pageWidth="850" pageHeight="1100" math="0" shadow="0">
      <root>
        <mxCell id="0" />
        <mxCell id="1" parent="0" />
        <mxCell id="__j8qxxGPxPXiS_JSPGA-3" value="" style="edgeStyle=orthogonalEdgeStyle;rounded=0;orthogonalLoop=1;jettySize=auto;html=1;" edge="1" parent="1" source="__j8qxxGPxPXiS_JSPGA-1" target="__j8qxxGPxPXiS_JSPGA-2">
          <mxGeometry relative="1" as="geometry" />
        </mxCell>
        <mxCell id="__j8qxxGPxPXiS_JSPGA-1" value="" style="strokeWidth=2;html=1;shape=mxgraph.flowchart.start_1;whiteSpace=wrap;" vertex="1" parent="1">
          <mxGeometry x="260" y="100" width="120" height="60" as="geometry" />
        </mxCell>
        <mxCell id="__j8qxxGPxPXiS_JSPGA-5" value="" style="edgeStyle=orthogonalEdgeStyle;rounded=0;orthogonalLoop=1;jettySize=auto;html=1;" edge="1" parent="1" source="__j8qxxGPxPXiS_JSPGA-2" target="__j8qxxGPxPXiS_JSPGA-4">
          <mxGeometry relative="1" as="geometry" />
        </mxCell>
        <mxCell id="__j8qxxGPxPXiS_JSPGA-2" value="" style="rounded=1;whiteSpace=wrap;html=1;absoluteArcSize=1;arcSize=14;strokeWidth=2;" vertex="1" parent="1">
          <mxGeometry x="270" y="240" width="100" height="100" as="geometry" />
        </mxCell>
        <mxCell id="__j8qxxGPxPXiS_JSPGA-4" value="" style="rounded=1;whiteSpace=wrap;html=1;absoluteArcSize=1;arcSize=14;strokeWidth=2;" vertex="1" parent="1">
          <mxGeometry x="270" y="420" width="100" height="100" as="geometry" />
        </mxCell>
      </root>
    </mxGraphModel>
  </diagram>
</mxfile>
